0
SECTION
2
HEADER
9
$INSUNITS
70
4
9
$ACADVER
1
AC1014
9
$HANDSEED
5
FFFF
0
ENDSEC
0
SECTION
2
TABLES
0
TABLE
2
VPORT
5
8
100
AcDbSymbolTable
0
ENDTAB
0
TABLE
2
LTYPE
5
5
100
AcDbSymbolTable
0
LTYPE
5
14
100
AcDbSymbolTableRecord
100
AcDbLinetypeTableRecord
2
BYBLOCK
70
0
0
LTYPE
5
15
100
AcDbSymbolTableRecord
100
AcDbLinetypeTableRecord
2
BYLAYER
70
0
0
ENDTAB
0
TABLE
2
LAYER
5
2
100
AcDbSymbolTable
70
2
0
LAYER
5
50
100
AcDbSymbolTableRecord
100
AcDbLayerTableRecord
2
0
70
0
6
CONTINUOUS
0
ENDTAB
0
TABLE
2
STYLE
5
3
100
AcDbSymbolTable
70
1
0
STYLE
5
11
100
AcDbSymbolTableRecord
100
AcDbTextStyleTableRecord
2
STANDARD
70
0
0
ENDTAB
0
TABLE
2
VIEW
5
6
100
AcDbSymbolTable
70
0
0
ENDTAB
0
TABLE
2
UCS
5
7
100
AcDbSymbolTable
70
0
0
ENDTAB
0
TABLE
2
APPID
5
9
100
AcDbSymbolTable
70
2
0
APPID
5
12
100
AcDbSymbolTableRecord
100
AcDbRegAppTableRecord
2
ACAD
70
0
0
ENDTAB
0
TABLE
2
DIMSTYLE
5
A
100
AcDbSymbolTable
70
1
0
ENDTAB
0
TABLE
2
BLOCK_RECORD
5
1
100
AcDbSymbolTable
70
1
0
BLOCK_RECORD
5
1F
100
AcDbSymbolTableRecord
100
AcDbBlockTableRecord
2
*MODEL_SPACE
0
BLOCK_RECORD
5
1B
100
AcDbSymbolTableRecord
100
AcDbBlockTableRecord
2
*PAPER_SPACE
0
ENDTAB
0
ENDSEC
0
SECTION
2
BLOCKS
0
BLOCK
5
20
100
AcDbEntity
100
AcDbBlockBegin
2
*MODEL_SPACE
0
ENDBLK
5
21
100
AcDbEntity
100
AcDbBlockEnd
0
BLOCK
5
1C
100
AcDbEntity
100
AcDbBlockBegin
2
*PAPER_SPACE
0
ENDBLK
5
1D
100
AcDbEntity
100
AcDbBlockEnd
0
ENDSEC
0
SECTION
2
ENTITIES
0
LWPOLYLINE
5
100
100
AcDbEntity
8
0
100
AcDbPolyline
90
6
70
1
43
0.0
10
0
20
155
42
-0.41421356237309503
10
25
20
180
10
79.999999999999986
20
180
42
-0.41421356237309515
10
105
20
155
10
105
20
0
10
0
20
0
0
SPLINE
5
101
100
AcDbEntity
8
0
100
AcDbSpline
70
0
71
3
72
9
73
5
74
0
42
0.000000001
43
0.0000000001
44
0.0000000001
40
0
40
0
40
0
40
0
40
0.036516013385370562
40
0.075905636779306479
40
0.075905636779306479
40
0.075905636779306479
40
0.075905636779306479
10
46.070794792879283
20
131.1307945748967
30
0
10
45.96253078640509
20
131.07171551742167
30
0
10
45.737482989840466
20
130.94890820462339
30
0
10
45.481154688671204
20
130.93524703232413
30
0
10
45.348138542879283
20
130.9281578561467
30
0
0
SPLINE
5
102
100
AcDbEntity
8
0
100
AcDbSpline
70
0
71
3
72
9
73
5
74
0
42
0.000000001
43
0.0000000001
44
0.0000000001
40
0
40
0
40
0
40
0
40
0.02698941206843989
40
0.057844962476710268
40
0.057844962476710268
40
0.057844962476710268
40
0.057844962476710268
10
45.348138542879283
20
130.9281578561467
30
0
10
45.257996390602202
20
130.93371792972633
30
0
10
45.064799539821792
20
130.94563453786756
30
0
10
44.880200671729476
20
131.00429120355042
30
0
10
44.781732292879283
20
131.0355797311467
30
0
0
LINE
5
103
100
AcDbEntity
8
0
100
AcDbLine
10
44.781732292879283
20
131.0355797311467
30
0
11
44.684076042879283
21
131.8607750436467
31
0
0
SPLINE
5
104
100
AcDbEntity
8
0
100
AcDbSpline
70
0
71
3
72
9
73
5
74
0
42
0.000000001
43
0.0000000001
44
0.0000000001
40
0
40
0
40
0
40
0
40
0.027606518963088019
40
0.051003611918803295
40
0.051003611918803295
40
0.051003611918803295
40
0.051003611918803295
10
44.684076042879283
20
131.8607750436467
30
0
10
44.773520687324137
20
131.83803692031256
30
0
10
44.938771508681967
20
131.79602776950841
30
0
10
45.108942502757479
20
131.78685699163259
30
0
10
45.187005730379283
20
131.7826500436467
30
0
0
SPLINE
5
105
100
AcDbEntity
8
0
100
AcDbSpline
70
0
71
3
72
9
73
5
74
0
42
0.000000001
43
0.0000000001
44
0.0000000001
40
0
40
0
40
0
40
0
40
0.026479974341711423
40
0.048256442233291265
40
0.048256442233291265
40
0.048256442233291265
40
0.048256442233291265
10
45.187005730379283
20
131.7826500436467
30
0
10
45.276204068184747
20
131.78487565800708
30
0
10
45.438756885648566
20
131.78893156189238
30
0
10
45.588280762305516
20
131.85189366723148
30
0
10
45.655755730379283
20
131.8803062936467
30
0
0
SPLINE
5
106
100
AcDbEntity
8
0
100
AcDbSpline
70
0
71
3
72
9
73
5
74
0
42
0.000000001
43
0.0000000001
44
0.0000000001
40
0
40
0
40
0
40
0
40
0.019825436409071039
40
0.040034986803925705
40
0.040034986803925705
40
0.040034986803925705
40
0.040034986803925705
10
45.655755730379283
20
131.8803062936467
30
0
10
45.711880311791084
20
131.91638992404393
30
0
10
45.825216877495592
20
131.98925629817981
30
0
10
45.904047957265689
20
132.0985650424515
30
0
10
45.943841667879283
20
132.1537437936467
30
0
0
SPLINE
5
107
100
AcDbEntity
8
0
100
AcDbSpline
70
0
71
3
72
9
73
5
74
0
42
0.000000001
43
0.0000000001
44
0.0000000001
40
0
40
0
40
0
40
0
40
0.025390918436555596
40
0.070781545800223375
40
0.070781545800223375
40
0.070781545800223375
40
0.070781545800223375
10
45.943841667879283
20
132.1537437936467
30
0
10
45.981203165249582
20
132.22975464526775
30
0
10
46.085354755665222
20
132.44164794833091
30
0
10
46.1627588410309
20
132.66488422262626
30
0
10
46.212396355379283
20
132.8080406686467
30
0
0
SPLINE
5
108
100
AcDbEntity
8
0
100
AcDbSpline
70
0
71
3
72
9
73
5
74
0
42
0.000000001
43
0.0000000001
44
0.0000000001
40
0
40
0
40
0
40
0
40
0.0095745466558240129
40
0.022861719335694891
40
0.022861719335694891
40
0.022861719335694891
40
0.022861719335694891
10
46.212396355379283
20
132.8080406686467
30
0
10
46.22285800645308
20
132.83819397054484
30
0
10
46.247837918216483
20
132.91019281809557
30
0
10
46.274832293598124
20
132.98146260257971
30
0
10
46.290521355379283
20
133.0228844186467
30
0
0
LINE
5
109
100
AcDbEntity
8
0
100
AcDbLine
10
46.290521355379283
20
133.0228844186467
30
0
11
44.322747917879283
21
138.2181969186467
31
0
0
LINE
5
110
100
AcDbEntity
8
0
100
AcDbLine
10
44.322747917879283
20
138.2181969186467
30
0
11
45.270013542879283
21
138.2181969186467
31
0
0
LINE
5
111
100
AcDbEntity
8
0
100
AcDbLine
10
45.270013542879283
20
138.2181969186467
30
0
11
46.349115105379283
21
135.2152672311467
31
0
0
SPLINE
5
112
100
AcDbEntity
8
0
100
AcDbSpline
70
0
71
3
72
9
73
5
74
0
42
0.000000001
43
0.0000000001
44
0.0000000001
40
0
40
0
40
0
40
0
40
0.061880016894162518
40
0.12589900060928449
40
0.12589900060928449
40
0.12589900060928449
40
0.12589900060928449
10
46.349115105379283
20
135.2152672311467
30
0
10
46.417724372478197
20
135.0206707727439
30
0
10
46.557314479169058
20
134.62475136507922
30
0
10
46.668536070208965
20
134.2199398801946
30
0
10
46.725091667879283
20
134.0140953561467
30
0
0
SPLINE
5
113
100
AcDbEntity
8
0
100
AcDbSpline
70
0
71
3
72
9
73
5
74
0
42
0.000000001
43
0.0000000001
44
0.0000000001
40
0
40
0
40
0
40
0
40
0.062075604548681024
40
0.12360727639966837
40
0.12360727639966837
40
0.12360727639966837
40
0.12360727639966837
10
46.725091667879283
20
134.0140953561467
30
0
10
46.777833548492552
20
134.21427121352204
30
0
10
46.882855163057599
20
134.61286890275971
30
0
10
47.018764271871909
20
135.0020177703708
30
0
10
47.086419792879283
20
135.1957359811467
30
0
0
LINE
5
114
100
AcDbEntity
8
0
100
AcDbLine
10
47.086419792879283
20
135.1957359811467
30
0
11
48.194818230379283
21
138.2181969186467
31
0
0
LINE
5
115
100
AcDbEntity
8
0
100
AcDbLine
10
48.194818230379283
20
138.2181969186467
30
0
11
49.073724480379283
21
138.2181969186467
31
0
0
LINE
5
116
100
AcDbEntity
8
0
100
AcDbLine
10
49.073724480379283
20
138.2181969186467
30
0
11
47.101068230379283
21
132.9447594186467
31
0
0
SPLINE
5
117
100
AcDbEntity
8
0
100
AcDbSpline
70
0
71
3
72
9
73
5
74
0
42
0.000000001
43
0.0000000001
44
0.0000000001
40
0
40
0
40
0
40
0
40
0.077458591165946264
40
0.12764983053208961
40
0.12764983053208961
40
0.12764983053208961
40
0.12764983053208961
10
47.101068230379283
20
132.9447594186467
30
0
10
47.011516681977248
20
132.70238456144239
30
0
10
46.863937958877116
20
132.30295682874467
30
0
10
46.680163367045971
20
131.91897947443633
30
0
10
46.607904167879283
20
131.7680016061467
30
0
0
SPLINE
5
118
100
AcDbEntity
8
0
100
AcDbSpline
70
0
71
3
72
9
73
5
74
0
42
0.000000001
43
0.0000000001
44
0.0000000001
40
0
40
0
40
0
40
0
40
0.045282697742662005
40
0.083949950517569413
40
0.083949950517569413
40
0.083949950517569413
40
0.083949950517569413
10
46.607904167879283
20
131.7680016061467
30
0
10
46.531548728875805
20
131.63605572005994
30
0
10
46.389992778245031
20
131.39144020110547
30
0
10
46.1714536633637
20
131.21298899821306
30
0
10
46.070794792879283
20
131.1307945748967
30
0
0
LINE
5
119
100
AcDbEntity
8
0
100
AcDbLine
10
61.261224480379283
20
135.8695641061467
30
0
11
61.261224480379283
21
133.0326500436467
31
0
0
LINE
5
120
100
AcDbEntity
8
0
100
AcDbLine
10
61.261224480379283
20
133.0326500436467
30
0
11
60.382318230379283
21
133.0326500436467
31
0
0
LINE
5
121
100
AcDbEntity
8
0
100
AcDbLine
10
60.382318230379283
20
133.0326500436467
30
0
11
60.382318230379283
21
140.1908531686467
31
0
0
LINE
5
122
100
AcDbEntity
8
0
100
AcDbLine
10
60.382318230379283
20
140.1908531686467
30
0
11
61.261224480379283
21
140.1908531686467
31
0
0
LINE
5
123
100
AcDbEntity
8
0
100
AcDbLine
10
61.261224480379283
20
140.1908531686467
30
0
11
61.261224480379283
21
137.6224937936467
31
0
0
SPLINE
5
124
100
AcDbEntity
8
0
100
AcDbSpline
70
0
71
3
72
9
73
5
74
0
42
0.000000001
43
0.0000000001
44
0.0000000001
40
0
40
0
40
0
40
0
40
0.087750131851488486
40
0.17527718477217671
40
0.17527718477217671
40
0.17527718477217671
40
0.17527718477217671
10
61.261224480379283
20
137.6224937936467
30
0
10
61.479531013836706
20
137.83042012958629
30
0
10
61.915589100524826
20
138.2457442098414
30
0
10
62.514756461362389
20
138.30552971246388
30
0
10
62.813958855379283
20
138.3353844186467
30
0
0
SPLINE
5
125
100
AcDbEntity
8
0
100
AcDbSpline
70
0
71
3
72
9
73
5
74
0
42
0.000000001
43
0.0000000001
44
0.0000000001
40
0
40
0
40
0
40
0
40
0.054131439717894844
40
0.10343050682030608
40
0.10343050682030608
40
0.10343050682030608
40
0.10343050682030608
10
62.813958855379283
20
138.3353844186467
30
0
10
62.996048172941066
20
138.32782195151603
30
0
10
63.343971496246908
20
138.31337212693697
30
0
10
63.66291455263994
20
138.17451732399257
30
0
10
63.814935417879283
20
138.1083336373967
30
0
0
SPLINE
5
126
100
AcDbEntity
8
0
100
AcDbSpline
70
0
71
3
72
9
73
5
74
0
42
0.000000001
43
0.0000000001
44
0.0000000001
40
0
40
0
40
0
40
0
40
0.045374127933959951
40
0.088594000830540337
40
0.088594000830540337
40
0.088594000830540337
40
0.088594000830540337
10
63.814935417879283
20
138.1083336373967
30
0
10
63.945674919479742
20
138.02712232826994
30
0
10
64.200946723936994
20
137.86855542867693
30
0
10
64.350088133428756
20
137.60800141662307
30
0
10
64.422845574129283
20
137.4808922311467
30
0
0
SPLINE
5
127
100
AcDbEntity
8
0
100
AcDbSpline
70
0
71
3
72
9
73
5
74
0
42
0.000000001
43
0.0000000001
44
0.0000000001
40
0
40
0
40
0
40
0
40
0.050957630193428256
40
0.11825217691950232
40
0.11825217691950232
40
0.11825217691950232
40
0.11825217691950232
10
64.422845574129283
20
137.4808922311467
30
0
10
64.47599545296373
20
137.31858731956356
30
0
10
64.599334957790091
20
136.94194285932122
30
0
10
64.603551504701343
20
136.54479207435068
30
0
10
64.605951042879283
20
136.3187828561467
30
0
0
LINE
5
128
100
AcDbEntity
8
0
100
AcDbLine
10
64.605951042879283
20
136.3187828561467
30
0
11
64.605951042879283
21
133.0326500436467
31
0
0
LINE
5
129
100
AcDbEntity
8
0
100
AcDbLine
10
64.605951042879283
20
133.0326500436467
30
0
11
63.727044792879283
21
133.0326500436467
31
0
0
LINE
5
130
100
AcDbEntity
8
0
100
AcDbLine
10
63.727044792879283
20
133.0326500436467
30
0
11
63.727044792879283
21
136.3187828561467
31
0
0
SPLINE
5
131
100
AcDbEntity
8
0
100
AcDbSpline
70
0
71
3
72
9
73
5
74
0
42
0.000000001
43
0.0000000001
44
0.0000000001
40
0
40
0
40
0
40
0
40
0.057391808871244496
40
0.10188982849031376
40
0.10188982849031376
40
0.10188982849031376
40
0.10188982849031376
10
63.727044792879283
20
136.3187828561467
30
0
10
63.722476743386736
20
136.51483878451538
30
0
10
63.714366913979305
20
136.86290421944199
30
0
10
63.524374877408505
20
137.15199974580537
30
0
10
63.441400261629283
20
137.2782555123967
30
0
0
SPLINE
5
132
100
AcDbEntity
8
0
100
AcDbSpline
70
0
71
3
72
9
73
5
74
0
42
0.000000001
43
0.0000000001
44
0.0000000001
40
0
40
0
40
0
40
0
40
0.041187923568145275
40
0.088117965943511484
40
0.088117965943511484
40
0.088117965943511484
40
0.088117965943511484
10
63.441400261629283
20
137.2782555123967
30
0
10
63.331259395146297
20
137.36574120014089
30
0
10
63.095622628809224
20
137.55290918981706
30
0
10
62.793956658252903
20
137.56963866423379
30
0
10
62.633294792879283
20
137.5785484811467
30
0
0
SPLINE
5
133
100
AcDbEntity
8
0
100
AcDbSpline
70
0
71
3
72
9
73
5
74
0
42
0.000000001
43
0.0000000001
44
0.0000000001
40
0
40
0
40
0
40
0
40
0.038239877103035454
40
0.076932989126351159
40
0.076932989126351159
40
0.076932989126351159
40
0.076932989126351159
10
62.633294792879283
20
137.5785484811467
30
0
10
62.504685330546138
20
137.56990806703865
30
0
10
62.245942073067503
20
137.55252482904262
30
0
10
62.014722426477384
20
137.43501354914349
30
0
10
61.898431511629283
20
137.3759117623967
30
0
0
SPLINE
5
134
100
AcDbEntity
8
0
100
AcDbSpline
70
0
71
3
72
9
73
5
74
0
42
0.000000001
43
0.0000000001
44
0.0000000001
40
0
40
0
40
0
40
0
40
0.037928819577691016
40
0.07465768524843594
40
0.07465768524843594
40
0.07465768524843594
40
0.07465768524843594
10
61.898431511629283
20
137.3759117623967
30
0
10
61.792334711679288
20
137.30332027048911
30
0
10
61.583497695797256
20
137.16043386340093
30
0
10
61.465673884845117
20
136.93667605787846
30
0
10
61.407708855379283
20
136.8265953561467
30
0
0
SPLINE
5
135
100
AcDbEntity
8
0
100
AcDbSpline
70
0
71
3
72
9
73
5
74
0
42
0.000000001
43
0.0000000001
44
0.0000000001
40
0
40
0
40
0
40
0
40
0.042697396467467404
40
0.097263781954412237
40
0.097263781954412237
40
0.097263781954412237
40
0.097263781954412237
10
61.407708855379283
20
136.8265953561467
30
0
10
61.365146252033512
20
136.69004420364584
30
0
10
61.2681895260095
20
136.37898351561094
30
0
10
61.263727654624546
20
136.05264482284349
30
0
10
61.261224480379283
20
135.8695641061467
30
0
0
SPLINE
5
136
100
AcDbEntity
8
0
100
AcDbSpline
70
0
71
3
72
9
73
5
74
0
42
0.000000001
43
0.0000000001
44
0.0000000001
40
0
40
0
40
0
40
0
40
0.089666959723244233
40
0.16189713542897155
40
0.16189713542897155
40
0.16189713542897155
40
0.16189713542897155
10
57.247552605379283
20
132.9154625436467
30
0
10
56.94300509778725
20
132.92405673973479
30
0
10
56.393132890305665
20
132.93957389044755
30
0
10
55.918695033652682
20
133.2132736582256
30
0
10
55.707025261629283
20
133.3353844186467
30
0
0
SPLINE
5
137
100
AcDbEntity
8
0
100
AcDbSpline
70
0
71
3
72
9
73
5
74
0
42
0.000000001
43
0.0000000001
44
0.0000000001
40
0
40
0
40
0
40
0
40
0.067824230893404266
40
0.14415979083309172
40
0.14415979083309172
40
0.14415979083309172
40
0.14415979083309172
10
55.707025261629283
20
133.3353844186467
30
0
10
55.545225500221434
20
133.49957060745331
30
0
10
55.201321567155723
20
133.848546870424
30
0
10
55.089805676835198
20
134.32709864592067
30
0
10
55.030755730379283
20
134.5805016061467
30
0
0
LINE
5
138
100
AcDbEntity
8
0
100
AcDbLine
10
55.030755730379283
20
134.5805016061467
30
0
11
55.899896355379283
21
134.7172203561467
31
0
0
SPLINE
5
139
100
AcDbEntity
8
0
100
AcDbSpline
70
0
71
3
72
9
73
5
74
0
42
0.000000001
43
0.0000000001
44
0.0000000001
40
0
40
0
40
0
40
0
40
0.048177774957039815
40
0.091491970369635134
40
0.091491970369635134
40
0.091491970369635134
40
0.091491970369635134
10
55.899896355379283
20
134.7172203561467
30
0
10
55.931963901762899
20
134.556042686571
30
0
10
55.992861753649436
20
134.24995834410777
30
0
10
56.2064799273628
20
134.02360124790098
30
0
10
56.307611199129283
20
133.9164391061467
30
0
0
SPLINE
5
140
100
AcDbEntity
8
0
100
AcDbSpline
70
0
71
3
72
9
73
5
74
0
42
0.000000001
43
0.0000000001
44
0.0000000001
40
0
40
0
40
0
40
0
40
0.045207772412607171
40
0.099064891324397414
40
0.099064891324397414
40
0.099064891324397414
40
0.099064891324397414
10
56.307611199129283
20
133.9164391061467
30
0
10
56.437681580368206
20
133.83542495463439
30
0
10
56.722707970617051
20
133.65789667383223
30
0
10
57.059546083951332
20
133.64508430268839
30
0
10
57.242669792879283
20
133.6381187936467
30
0
0
SPLINE
5
141
100
AcDbEntity
8
0
100
AcDbSpline
70
0
71
3
72
9
73
5
74
0
42
0.000000001
43
0.0000000001
44
0.0000000001
40
0
40
0
40
0
40
0
40
0.053093464691760649
40
0.094555747430439124
40
0.094555747430439124
40
0.094555747430439124
40
0.094555747430439124
10
57.242669792879283
20
133.6381187936467
30
0
10
57.423331371967421
20
133.64227415553916
30
0
10
57.745077009435576
20
133.64967456445703
30
0
10
58.020385653514225
20
133.81305793130937
30
0
10
58.141107292879283
20
133.8847008248967
30
0
0
SPLINE
5
142
100
AcDbEntity
8
0
100
AcDbSpline
70
0
71
3
72
9
73
5
74
0
42
0.000000001
43
0.0000000001
44
0.0000000001
40
0
40
0
40
0
40
0
40
0.034651685302313114
40
0.066570271049705851
40
0.066570271049705851
40
0.066570271049705851
40
0.066570271049705851
10
58.141107292879283
20
133.8847008248967
30
0
10
58.226513597827221
20
133.96800122210914
30
0
10
58.390589913889087
20
134.1280318230049
30
0
10
58.419982918213861
20
134.35465474454918
30
0
10
58.434076042879283
20
134.4633141061467
30
0
0
SPLINE
5
143
100
AcDbEntity
8
0
100
AcDbSpline
70
0
71
3
72
9
73
5
74
0
42
0.000000001
43
0.0000000001
44
0.0000000001
40
0
40
0
40
0
40
0
40
0.027386495693497079
40
0.055445944262550048
40
0.055445944262550048
40
0.055445944262550048
40
0.055445944262550048
10
58.434076042879283
20
134.4633141061467
30
0
10
58.422779090107611
20
134.55764411786311
30
0
10
58.399907590930589
20
134.7486220593438
30
0
10
58.250763907744002
20
134.87042398323814
30
0
10
58.175286980379283
20
134.9320641061467
30
0
0
SPLINE
5
144
100
AcDbEntity
8
0
100
AcDbSpline
70
0
71
3
72
9
73
5
74
0
42
0.000000001
43
0.0000000001
44
0.0000000001
40
0
40
0
40
0
40
0
40
0.034189495314370752
40
0.094821587286963632
40
0.094821587286963632
40
0.094821587286963632
40
0.094821587286963632
10
58.175286980379283
20
134.9320641061467
30
0
10
58.071152820395881
20
134.9788279898454
30
0
10
57.782345797957319
20
135.10852354806414
30
0
10
57.474009813702907
20
135.18256871452527
30
0
10
57.276849480379283
20
135.2299156686467
30
0
0
SPLINE
5
145
100
AcDbEntity
8
0
100
AcDbSpline
70
0
71
3
72
9
73
5
74
0
42
0.000000001
43
0.0000000001
44
0.0000000001
40
0
40
0
40
0
40
0
40
0.084955368736431822
40
0.14065428799430346
40
0.14065428799430346
40
0.14065428799430346
40
0.14065428799430346
10
57.276849480379283
20
135.2299156686467
30
0
10
57.001754982513816
20
135.29882545240983
30
0
10
56.546301474349306
20
135.4129142582758
30
0
10
56.109493035628617
20
135.58437909321316
30
0
10
55.936517449129283
20
135.6522789498967
30
0
0
SPLINE
5
146
100
AcDbEntity
8
0
100
AcDbSpline
70
0
71
3
72
9
73
5
74
0
42
0.000000001
43
0.0000000001
44
0.0000000001
40
0
40
0
40
0
40
0
40
0.039107678037093203
40
0.075916482439716743
40
0.075916482439716743
40
0.075916482439716743
40
0.075916482439716743
10
55.936517449129283
20
135.6522789498967
30
0
10
55.820581837811716
20
135.71570513043281
30
0
10
55.595525678957699
20
135.83882909898753
30
0
10
55.443717022010247
20
136.04532269439221
30
0
10
55.370111199129283
20
136.1454430123967
30
0
0
SPLINE
5
147
100
AcDbEntity
8
0
100
AcDbSpline
70
0
71
3
72
9
73
5
74
0
42
0.000000001
43
0.0000000001
44
0.0000000001
40
0
40
0
40
0
40
0
40
0.036161359902325357
40
0.072916992487511711
40
0.072916992487511711
40
0.072916992487511711
40
0.072916992487511711
10
55.370111199129283
20
136.1454430123967
30
0
10
55.31385818906724
20
136.25367939402813
30
0
10
55.200427711807166
20
136.47193090469062
30
0
10
55.185011189018681
20
136.71747244371826
30
0
10
55.177240105379283
20
136.8412437936467
30
0
0
SPLINE
5
148
100
AcDbEntity
8
0
100
AcDbSpline
70
0
71
3
72
9
73
5
74
0
42
0.000000001
43
0.0000000001
44
0.0000000001
40
0
40
0
40
0
40
0
40
0.033621120392150712
40
0.066661948498665594
40
0.066661948498665594
40
0.066661948498665594
40
0.066661948498665594
10
55.177240105379283
20
136.8412437936467
30
0
10
55.183618979824473
20
136.95423101420116
30
0
10
55.19626663090763
20
137.1782553236161
30
0
10
55.289647511588697
20
137.38223274063265
30
0
10
55.335931511629283
20
137.4833336373967
30
0
0
SPLINE
5
149
100
AcDbEntity
8
0
100
AcDbSpline
70
0
71
3
72
9
73
5
74
0
42
0.000000001
43
0.0000000001
44
0.0000000001
40
0
40
0
40
0
40
0
40
0.032896646958658099
40
0.065828606546098831
40
0.065828606546098831
40
0.065828606546098831
40
0.065828606546098831
10
55.335931511629283
20
137.4833336373967
30
0
10
55.39363415763237
20
137.57765039468725
30
0
10
55.50910139005822
20
137.7663851527976
30
0
10
55.681709877649752
20
137.90480782853894
30
0
10
55.768060417879283
20
137.9740562936467
30
0
0
SPLINE
5
150
100
AcDbEntity
8
0
100
AcDbSpline
70
0
71
3
72
9
73
5
74
0
42
0.000000001
43
0.0000000001
44
0.0000000001
40
0
40
0
40
0
40
0
40
0.027973151899489714
40
0.06172741437791144
40
0.06172741437791144
40
0.06172741437791144
40
0.06172741437791144
10
55.768060417879283
20
137.9740562936467
30
0
10
55.847303907252083
20
138.02390625106992
30
0
10
56.022167852610913
20
138.13390847712012
30
0
10
56.219329171031731
20
138.19629129474319
30
0
10
56.327142449129283
20
138.2304039498967
30
0
0
SPLINE
5
151
100
AcDbEntity
8
0
100
AcDbSpline
70
0
71
3
72
9
73
5
74
0
42
0.000000001
43
0.0000000001
44
0.0000000001
40
0
40
0
40
0
40
0
40
0.037517611024043718
40
0.076850874432647848
40
0.076850874432647848
40
0.076850874432647848
40
0.076850874432647848
10
56.327142449129283
20
138.2304039498967
30
0
10
56.448804456235294
20
138.26101848289218
30
0
10
56.698016263067473
20
138.32372912908821
30
0
10
56.954928707858762
20
138.33143860829063
30
0
10
57.086419792879283
20
138.3353844186467
30
0
0
SPLINE
5
152
100
AcDbEntity
8
0
100
AcDbSpline
70
0
71
3
72
9
73
5
74
0
42
0.000000001
43
0.0000000001
44
0.0000000001
40
0
40
0
40
0
40
0
40
0.057480245233970287
40
0.10905928594039564
40
0.10905928594039564
40
0.10905928594039564
40
0.10905928594039564
10
57.086419792879283
20
138.3353844186467
30
0
10
57.278989263767308
20
138.32978148346393
30
0
10
57.644358077061028
20
138.31915083796619
30
0
10
57.993209575296596
20
138.21083201236181
30
0
10
58.158197136629283
20
138.1596031686467
30
0
0
SPLINE
5
153
100
AcDbEntity
8
0
100
AcDbSpline
70
0
71
3
72
9
73
5
74
0
42
0.000000001
43
0.0000000001
44
0.0000000001
40
0
40
0
40
0
40
0
40
0.045123518462441829
40
0.083973821780503916
40
0.083973821780503916
40
0.083973821780503916
40
0.083973821780503916
10
58.158197136629283
20
138.1596031686467
30
0
10
58.298635945170901
20
138.10010143848345
30
0
10
58.559989312137546
20
137.98937009805132
30
0
10
58.750985510658623
20
137.78026907618229
30
0
10
58.839349480379283
20
137.6835289498967
30
0
0
SPLINE
5
154
100
AcDbEntity
8
0
100
AcDbSpline
70
0
71
3
72
9
73
5
74
0
42
0.000000001
43
0.0000000001
44
0.0000000001
40
0
40
0
40
0
40
0
40
0.039698243451714924
40
0.086418851580593842
40
0.086418851580593842
40
0.086418851580593842
40
0.086418851580593842
10
58.839349480379283
20
137.6835289498967
30
0
10
58.907780700555968
20
137.56909743764635
30
0
10
59.056748184901252
20
137.31999221249117
30
0
10
59.112138304837615
20
137.0345985940582
30
0
10
59.142083855379283
20
136.8803062936467
30
0
0
LINE
5
155
100
AcDbEntity
8
0
100
AcDbLine
10
59.142083855379283
20
136.8803062936467
30
0
11
58.282708855379283
21
136.7631187936467
31
0
0
SPLINE
5
156
100
AcDbEntity
8
0
100
AcDbSpline
70
0
71
3
72
9
73
5
74
0
42
0.000000001
43
0.0000000001
44
0.0000000001
40
0
40
0
40
0
40
0
40
0.037427293309550733
40
0.072476622177748751
40
0.072476622177748751
40
0.072476622177748751
40
0.072476622177748751
10
58.282708855379283
20
136.7631187936467
30
0
10
58.25553946756127
20
136.88793023868868
30
0
10
58.202926914486696
20
137.1296231623781
30
0
10
58.027964383833712
20
137.30385914931716
30
0
10
57.943353386629283
20
137.3881187936467
30
0
0
SPLINE
5
157
100
AcDbEntity
8
0
100
AcDbSpline
70
0
71
3
72
9
73
5
74
0
42
0.000000001
43
0.0000000001
44
0.0000000001
40
0
40
0
40
0
40
0
40
0.037832000448818008
40
0.083648592476052053
40
0.083648592476052053
40
0.083648592476052053
40
0.083648592476052053
10
57.943353386629283
20
137.3881187936467
30
0
10
57.833206471002754
20
137.45347417855615
30
0
10
57.589665702647068
20
137.59797845783166
30
0
10
57.305526865984547
20
137.60750837549904
30
0
10
57.149896355379283
20
137.6127281686467
30
0
0
SPLINE
5
158
100
AcDbEntity
8
0
100
AcDbSpline
70
0
71
3
72
9
73
5
74
0
42
0.000000001
43
0.0000000001
44
0.0000000001
40
0
40
0
40
0
40
0
40
0.05212073572586625
40
0.089788477449465581
40
0.089788477449465581
40
0.089788477449465581
40
0.089788477449465581
10
57.149896355379283
20
137.6127281686467
30
0
10
56.973017254592193
20
137.61130308074831
30
0
10
56.668307335763828
20
137.608848079474
30
0
10
56.398730468479897
20
137.47055082636956
30
0
10
56.285638542879283
20
137.4125328561467
30
0
0
SPLINE
5
159
100
AcDbEntity
8
0
100
AcDbSpline
70
0
71
3
72
9
73
5
74
0
42
0.000000001
43
0.0000000001
44
0.0000000001
40
0
40
0
40
0
40
0
40
0.029134938603119311
40
0.055100358650090192
40
0.055100358650090192
40
0.055100358650090192
40
0.055100358650090192
10
56.285638542879283
20
137.4125328561467
30
0
10
56.210234112831415
20
137.34582172225328
30
0
10
56.067628315852048
20
137.21965679520284
30
0
10
56.039910967101477
20
137.03214545282725
30
0
10
56.026849480379283
20
136.9437828561467
30
0
0
SPLINE
5
160
100
AcDbEntity
8
0
100
AcDbSpline
70
0
71
3
72
9
73
5
74
0
42
0.000000001
43
0.0000000001
44
0.0000000001
40
0
40
0
40
0
40
0
40
0.016455965555864337
40
0.033066949928455776
40
0.033066949928455776
40
0.033066949928455776
40
0.033066949928455776
10
56.026849480379283
20
136.9437828561467
30
0
10
56.031408737181508
20
136.8881350996015
30
0
10
56.040570199988323
20
136.77631537239895
30
0
10
56.102940172837336
20
136.68302801450722
30
0
10
56.134271355379283
20
136.6361656686467
30
0
0
SPLINE
5
161
100
AcDbEntity
8
0
100
AcDbSpline
70
0
71
3
72
9
73
5
74
0
42
0.000000001
43
0.0000000001
44
0.0000000001
40
0
40
0
40
0
40
0
40
0.018913021293762478
40
0.041410086434554412
40
0.041410086434554412
40
0.041410086434554412
40
0.041410086434554412
10
56.134271355379283
20
136.6361656686467
30
0
10
56.178018077962662
20
136.58990264839585
30
0
10
56.273801587919571
20
136.48860970119532
30
0
10
56.401700911515277
20
136.43235334250338
30
0
10
56.471185417879283
20
136.4017906686467
30
0
0
SPLINE
5
162
100
AcDbEntity
8
0
100
AcDbSpline
70
0
71
3
72
9
73
5
74
0
42
0.000000001
43
0.0000000001
44
0.0000000001
40
0
40
0
40
0
40
0
40
0.027220584864474803
40
0.080827801167106139
40
0.080827801167106139
40
0.080827801167106139
40
0.080827801167106139
10
56.471185417879283
20
136.4017906686467
30
0
10
56.557732677990735
20
136.37451847178764
30
0
10
56.814722921465489
20
136.29353741586658
30
0
10
57.074957734455943
20
136.22357938195267
30
0
10
57.247552605379283
20
136.1771812936467
30
0
0
SPLINE
5
163
100
AcDbEntity
8
0
100
AcDbSpline
70
0
71
3
72
9
73
5
74
0
42
0.000000001
43
0.0000000001
44
0.0000000001
40
0
40
0
40
0
40
0
40
0.082337534269954396
40
0.13642976717156546
40
0.13642976717156546
40
0.13642976717156546
40
0.13642976717156546
10
57.247552605379283
20
136.1771812936467
30
0
10
57.513023448180775
20
136.10667914186399
30
0
10
57.952897262661295
20
135.98986009647857
30
0
10
58.379629565366329
20
135.83203971942129
30
0
10
58.548822136629283
20
135.7694664498967
30
0
0
SPLINE
5
164
100
AcDbEntity
8
0
100
AcDbSpline
70
0
71
3
72
9
73
5
74
0
42
0.000000001
43
0.0000000001
44
0.0000000001
40
0
40
0
40
0
40
0
40
0.038227795239344324
40
0.074759770951369264
40
0.074759770951369264
40
0.074759770951369264
40
0.074759770951369264
10
58.548822136629283
20
135.7694664498967
30
0
10
58.664256521834986
20
135.71175884976984
30
0
10
58.890004518648809
20
135.59890361078405
30
0
10
59.049497744116231
20
135.40351763128103
30
0
10
59.127435417879283
20
135.3080406686467
30
0
0
SPLINE
5
165
100
AcDbEntity
8
0
100
AcDbSpline
70
0
71
3
72
9
73
5
74
0
42
0.000000001
43
0.0000000001
44
0.0000000001
40
0
40
0
40
0
40
0
40
0.037411115529106337
40
0.079003428598679135
40
0.079003428598679135
40
0.079003428598679135
40
0.079003428598679135
10
59.127435417879283
20
135.3080406686467
30
0
10
59.188627480015924
20
135.19742912927322
30
0
10
59.317850643865633
20
134.9638437167697
30
0
10
59.330655227200147
20
134.69671873156409
30
0
10
59.337396355379283
20
134.5560875436467
30
0
0
SPLINE
5
166
100
AcDbEntity
8
0
100
AcDbSpline
70
0
71
3
72
9
73
5
74
0
42
0.000000001
43
0.0000000001
44
0.0000000001
40
0
40
0
40
0
40
0
40
0.043142228624160485
40
0.087613115301914846
40
0.087613115301914846
40
0.087613115301914846
40
0.087613115301914846
10
59.337396355379283
20
134.5560875436467
30
0
10
59.326081800289714
20
134.41078854265558
30
0
10
59.303104233963978
20
134.11571574430792
30
0
10
59.155811777002413
20
133.85883765515081
30
0
10
59.081048699129283
20
133.7284508248967
30
0
0
SPLINE
5
167
100
AcDbEntity
8
0
100
AcDbSpline
70
0
71
3
72
9
73
5
74
0
42
0.000000001
43
0.0000000001
44
0.0000000001
40
0
40
0
40
0
40
0
40
0.046533653040949453
40
0.096306354130678062
40
0.096306354130678062
40
0.096306354130678062
40
0.096306354130678062
10
59.081048699129283
20
133.7284508248967
30
0
10
58.983584991393315
20
133.6052834115863
30
0
10
58.781873461377629
20
133.35037532360116
30
0
10
58.491415853930661
20
133.20367962629845
30
0
10
58.341302605379283
20
133.1278648873967
30
0
0
SPLINE
5
168
100
AcDbEntity
8
0
100
AcDbSpline
70
0
71
3
72
9
73
5
74
0
42
0.000000001
43
0.0000000001
44
0.0000000001
40
0
40
0
40
0
40
0
40
0.053920579470798438
40
0.11202505446763474
40
0.11202505446763474
40
0.11202505446763474
40
0.11202505446763474
10
58.341302605379283
20
133.1278648873967
30
0
10
58.171340201751903
20
133.06593800424267
30
0
10
57.818227388227371
20
132.93727910394097
30
0
10
57.442455622837201
20
132.92291357102638
30
0
10
57.247552605379283
20
132.9154625436467
30
0
0
LINE
5
169
100
AcDbEntity
8
0
100
AcDbLine
10
54.298333855379283
20
133.0326500436467
30
0
11
53.380365105379283
21
133.0326500436467
31
0
0
SPLINE
5
170
100
AcDbEntity
8
0
100
AcDbSpline
70
0
71
3
72
9
73
5
74
0
42
0.000000001
43
0.0000000001
44
0.0000000001
40
0
40
0
40
0
40
0
40
0.03171785137237762
40
0.066601992882461658
40
0.066601992882461658
40
0.066601992882461658
40
0.066601992882461658
10
53.380365105379283
20
133.0326500436467
30
0
10
53.338597341642419
20
133.13031638712738
30
0
10
53.250892273904398
20
133.33539878810677
30
0
10
53.220501590689707
20
133.55649491214632
30
0
10
53.204583855379283
20
133.6722984811467
30
0
0
SPLINE
5
171
100
AcDbEntity
8
0
100
AcDbSpline
70
0
71
3
72
9
73
5
74
0
42
0.000000001
43
0.0000000001
44
0.0000000001
40
0
40
0
40
0
40
0
40
0.059571844612805812
40
0.11116099581224553
40
0.11116099581224553
40
0.11116099581224553
40
0.11116099581224553
10
53.204583855379283
20
133.6722984811467
30
0
10
53.049608509495897
20
133.54659961636636
30
0
10
52.760424686387594
20
133.31204567444516
30
0
10
52.421797359705671
20
133.15789936055683
30
0
10
52.264642449129283
20
133.0863609811467
30
0
0
SPLINE
5
172
100
AcDbEntity
8
0
100
AcDbSpline
70
0
71
3
72
9
73
5
74
0
42
0.000000001
43
0.0000000001
44
0.0000000001
40
0
40
0
40
0
40
0
40
0.048536920035721583
40
0.098828592512663821
40
0.098828592512663821
40
0.098828592512663821
40
0.098828592512663821
10
52.264642449129283
20
133.0863609811467
30
0
10
52.109862577250894
20
133.03652001497741
30
0
10
51.794707085806991
20
132.93503618509374
30
0
10
51.463796966919382
20
132.9220638675171
30
0
10
51.295404167879283
20
132.9154625436467
30
0
0
SPLINE
5
173
100
AcDbEntity
8
0
100
AcDbSpline
70
0
71
3
72
9
73
5
74
0
42
0.000000001
43
0.0000000001
44
0.0000000001
40
0
40
0
40
0
40
0
40
0.076278929186330266
40
0.14025137275955807
40
0.14025137275955807
40
0.14025137275955807
40
0.14025137275955807
10
51.295404167879283
20
132.9154625436467
30
0
10
51.035334699155541
20
132.92587132041746
30
0
10
50.557154153224516
20
132.94500957060552
30
0
10
50.1621154430891
20
133.21142412855255
30
0
10
49.981927605379283
20
133.3329430123967
30
0
0
SPLINE
5
174
100
AcDbEntity
8
0
100
AcDbSpline
70
0
71
3
72
9
73
5
74
0
42
0.000000001
43
0.0000000001
44
0.0000000001
40
0
40
0
40
0
40
0
40
0.058699734520596153
40
0.11894563864895109
40
0.11894563864895109
40
0.11894563864895109
40
0.11894563864895109
10
49.981927605379283
20
133.3329430123967
30
0
10
49.848063542732604
20
133.48314113516454
30
0
10
49.57680939561093
20
133.78749364684802
30
0
10
49.54105354839993
20
134.1939616907558
30
0
10
49.522943230379283
20
134.3998375436467
30
0
0
SPLINE
5
175
100
AcDbEntity
8
0
100
AcDbSpline
70
0
71
3
72
9
73
5
74
0
42
0.000000001
43
0.0000000001
44
0.0000000001
40
0
40
0
40
0
40
0
40
0.036694770450011793
40
0.072295484133337237
40
0.072295484133337237
40
0.072295484133337237
40
0.072295484133337237
10
49.522943230379283
20
134.3998375436467
30
0
10
49.529718451516217
20
134.52322405673095
30
0
10
49.543066890168312
20
134.76631830666233
30
0
10
49.645728878455813
20
134.98697807628193
30
0
10
49.696283074129283
20
135.0956383248967
30
0
0
SPLINE
5
176
100
AcDbEntity
8
0
100
AcDbSpline
70
0
71
3
72
9
73
5
74
0
42
0.000000001
43
0.0000000001
44
0.0000000001
40
0
40
0
40
0
40
0
40
0.034731578228676188
40
0.068429673356274312
40
0.068429673356274312
40
0.068429673356274312
40
0.068429673356274312
10
49.696283074129283
20
135.0956383248967
30
0
10
49.757812615439086
20
135.19493436306959
30
0
10
49.879040806852366
20
135.39057175717258
30
0
10
50.060851982348744
20
135.53157337358218
30
0
10
50.150384636629283
20
135.6010094186467
30
0
0
SPLINE
5
177
100
AcDbEntity
8
0
100
AcDbSpline
70
0
71
3
72
9
73
5
74
0
42
0.000000001
43
0.0000000001
44
0.0000000001
40
0
40
0
40
0
40
0
40
0.03421220594913222
40
0.069718355638635182
40
0.069718355638635182
40
0.069718355638635182
40
0.069718355638635182
10
50.150384636629283
20
135.6010094186467
30
0
10
50.24797174907058
20
135.66090887478666
30
0
10
50.446836827254835
20
135.78297325122401
30
0
10
50.669374775357582
20
135.85328632733732
30
0
10
50.782708855379283
20
135.8890953561467
30
0
0
SPLINE
5
178
100
AcDbEntity
8
0
100
AcDbSpline
70
0
71
3
72
9
73
5
74
0
42
0.000000001
43
0.0000000001
44
0.0000000001
40
0
40
0
40
0
40
0
40
0.033157541737035841
40
0.079267976401481949
40
0.079267976401481949
40
0.079267976401481949
40
0.079267976401481949
10
50.782708855379283
20
135.8890953561467
30
0
10
50.890694366851299
20
135.91291214852708
30
0
10
51.148849601728216
20
135.96984969086179
30
0
10
51.411294070777572
20
136.00214500589794
30
0
10
51.563958855379283
20
136.0209312936467
30
0
0
SPLINE
5
179
100
AcDbEntity
8
0
100
AcDbSpline
70
0
71
3
72
9
73
5
74
0
42
0.000000001
43
0.0000000001
44
0.0000000001
40
0
40
0
40
0
40
0
40
0.093449189465979049
40
0.15982727205054037
40
0.15982727205054037
40
0.15982727205054037
40
0.15982727205054037
10
51.563958855379283
20
136.0209312936467
30
0
10
51.873775899898732
20
136.05843806691254
30
0
10
52.403659715299106
20
136.12258635207968
30
0
10
52.917809442607336
20
136.26466061325061
30
0
10
53.131341667879283
20
136.3236656686467
30
0
0
SPLINE
5
180
100
AcDbEntity
8
0
100
AcDbSpline
70
0
71
3
72
9
73
5
74
0
42
0.000000001
43
0.0000000001
44
0.0000000001
40
0
40
0
40
0
40
0
40
0.014775046920056403
40
0.022954668779309798
40
0.022954668779309798
40
0.022954668779309798
40
0.022954668779309798
10
53.131341667879283
20
136.3236656686467
30
0
10
53.13271868689224
20
136.37289759042716
30
0
10
53.134858038159017
20
136.44938482352728
30
0
10
53.135865487756519
20
136.52589453494664
30
0
10
53.136224480379283
20
136.5531578561467
30
0
0
SPLINE
5
181
100
AcDbEntity
8
0
100
AcDbSpline
70
0
71
3
72
9
73
5
74
0
42
0.000000001
43
0.0000000001
44
0.0000000001
40
0
40
0
40
0
40
0
40
0.046197767404388974
40
0.081457709024412767
40
0.081457709024412767
40
0.081457709024412767
40
0.081457709024412767
10
53.136224480379283
20
136.5531578561467
30
0
10
53.132718065092817
20
136.71197647317248
30
0
10
53.126535416619291
20
136.99201166578473
30
0
10
52.959503012625447
20
137.21393264777274
30
0
10
52.887201042879283
20
137.3099937936467
30
0
0
SPLINE
5
182
100
AcDbEntity
8
0
100
AcDbSpline
70
0
71
3
72
9
73
5
74
0
42
0.000000001
43
0.0000000001
44
0.0000000001
40
0
40
0
40
0
40
0
40
0.047456629679273971
40
0.10615836326591749
40
0.10615836326591749
40
0.10615836326591749
40
0.10615836326591749
10
52.887201042879283
20
137.3099937936467
30
0
10
52.751510650810154
20
137.39661533431456
30
0
10
52.447977297718715
20
137.59038385607894
30
0
10
52.086247802302339
20
137.60162783993405
30
0
10
51.886224480379283
20
137.6078453561467
30
0
0
SPLINE
5
183
100
AcDbEntity
8
0
100
AcDbSpline
70
0
71
3
72
9
73
5
74
0
42
0.000000001
43
0.0000000001
44
0.0000000001
40
0
40
0
40
0
40
0
40
0.054167110795865676
40
0.095200624641479964
40
0.095200624641479964
40
0.095200624641479964
40
0.095200624641479964
10
51.886224480379283
20
137.6078453561467
30
0
10
51.702611952723487
20
137.60498711405555
30
0
10
51.379906401919641
20
137.59996365187607
30
0
10
51.093950340558308
20
137.45363219889444
30
0
10
50.970697136629283
20
137.3905601998967
30
0
0
SPLINE
5
184
100
AcDbEntity
8
0
100
AcDbSpline
70
0
71
3
72
9
73
5
74
0
42
0.000000001
43
0.0000000001
44
0.0000000001
40
0
40
0
40
0
40
0
40
0.039568955754992551
40
0.089726115688700009
40
0.089726115688700009
40
0.089726115688700009
40
0.089726115688700009
10
50.970697136629283
20
137.3905601998967
30
0
10
50.87659836362171
20
137.2952873264648
30
0
10
50.66322105224355
20
137.0792476382689
30
0
10
50.580132282245401
20
136.78564305058006
30
0
10
50.533685417879283
20
136.6215172311467
30
0
0
LINE
5
185
100
AcDbEntity
8
0
100
AcDbLine
10
50.533685417879283
20
136.6215172311467
30
0
11
49.674310417879283
21
136.7387047311467
31
0
0
SPLINE
5
186
100
AcDbEntity
8
0
100
AcDbSpline
70
0
71
3
72
9
73
5
74
0
42
0.000000001
43
0.0000000001
44
0.0000000001
40
0
40
0
40
0
40
0
40
0.052220026090817051
40
0.097744765822244534
40
0.097744765822244534
40
0.097744765822244534
40
0.097744765822244534
10
49.674310417879283
20
136.7387047311467
30
0
10
49.716226627216074
20
136.90924080248746
30
0
10
49.794684842818178
20
137.22844800335054
30
0
10
49.975730416389943
20
137.50228029858096
30
0
10
50.060052605379283
20
137.6298180123967
30
0
0
SPLINE
5
187
100
AcDbEntity
8
0
100
AcDbSpline
70
0
71
3
72
9
73
5
74
0
42
0.000000001
43
0.0000000001
44
0.0000000001
40
0
40
0
40
0
40
0
40
0.044497433588409289
40
0.094503518852336488
40
0.094503518852336488
40
0.094503518852336488
40
0.094503518852336488
10
50.060052605379283
20
137.6298180123967
30
0
10
50.163993894253274
20
137.73796720223811
30
0
10
50.384744098489719
20
137.96765413419877
30
0
10
50.680121992304606
20
138.08839140185387
30
0
10
50.836419792879283
20
138.1522789498967
30
0
0
SPLINE
5
188
100
AcDbEntity
8
0
100
AcDbSpline
70
0
71
3
72
9
73
5
74
0
42
0.000000001
43
0.0000000001
44
0.0000000001
40
0
40
0
40
0
40
0
40
0.056503821279631307
40
0.11953647341776596
40
0.11953647341776596
40
0.11953647341776596
40
0.11953647341776596
10
50.836419792879283
20
138.1522789498967
30
0
10
51.017901142129674
20
138.20564155027847
30
0
10
51.401833414128234
20
138.31853262414887
30
0
10
51.802108808141725
20
138.32956627553381
30
0
10
52.013177605379283
20
138.3353844186467
30
0
0
SPLINE
5
189
100
AcDbEntity
8
0
100
AcDbSpline
70
0
71
3
72
9
73
5
74
0
42
0.000000001
43
0.0000000001
44
0.0000000001
40
0
40
0
40
0
40
0
40
0.06030730566080679
40
0.10945436585812809
40
0.10945436585812809
40
0.10945436585812809
40
0.10945436585812809
10
52.013177605379283
20
138.3353844186467
30
0
10
52.215260880239413
20
138.33198149354655
30
0
10
52.582030651463413
20
138.32580537599631
30
0
10
52.934164482686498
20
138.22458449150758
30
0
10
53.092279167879283
20
138.1791344186467
30
0
0
SPLINE
5
190
100
AcDbEntity
8
0
100
AcDbSpline
70
0
71
3
72
9
73
5
74
0
42
0.000000001
43
0.0000000001
44
0.0000000001
40
0
40
0
40
0
40
0
40
0.040098797038220856
40
0.073200171768511291
40
0.073200171768511291
40
0.073200171768511291
40
0.073200171768511291
10
53.092279167879283
20
138.1791344186467
30
0
10
53.21751568607538
20
138.12819690109731
30
0
10
53.446134380918181
20
138.03521069429107
30
0
10
53.622760003563847
20
137.8636488712489
30
0
10
53.702630730379283
20
137.7860680123967
30
0
0
SPLINE
5
191
100
AcDbEntity
8
0
100
AcDbSpline
70
0
71
3
72
9
73
5
74
0
42
0.000000001
43
0.0000000001
44
0.0000000001
40
0
40
0
40
0
40
0
40
0.031520684463559559
40
0.066244110016481145
40
0.066244110016481145
40
0.066244110016481145
40
0.066244110016481145
10
53.702630730379283
20
137.7860680123967
30
0
10
53.763401771027461
20
137.69927508081625
30
0
10
53.891118651895582
20
137.51687039620623
30
0
10
53.946853489744129
20
137.30105057344937
30
0
10
53.976068230379283
20
137.1879234811467
30
0
0
SPLINE
5
192
100
AcDbEntity
8
0
100
AcDbSpline
70
0
71
3
72
9
73
5
74
0
42
0.000000001
43
0.0000000001
44
0.0000000001
40
0
40
0
40
0
40
0
40
0.031666130805919283
40
0.081238853150024756
40
0.081238853150024756
40
0.081238853150024756
40
0.081238853150024756
10
53.976068230379283
20
137.1879234811467
30
0
10
53.988739825581703
20
137.08304969331795
30
0
10
54.021248560802135
20
136.81399799575101
30
0
10
54.020481568742809
20
136.54283987523885
30
0
10
54.020013542879283
20
136.3773766061467
30
0
0
LINE
5
193
100
AcDbEntity
8
0
100
AcDbLine
10
54.020013542879269
20
136.3773766061467
30
0
11
54.020013542879283
21
135.2055016061467
31
0
0
SPLINE
5
194
100
AcDbEntity
8
0
100
AcDbSpline
70
0
71
3
72
9
73
5
74
0
42
0.000000001
43
0.0000000001
44
0.0000000001
40
0
40
0
40
0
40
0
40
0.10004647039462408
40
0.15520016924332014
40
0.15520016924332014
40
0.15520016924332014
40
0.15520016924332014
10
54.020013542879283
20
135.2055016061467
30
0
10
54.017993559900731
20
134.87174296950715
30
0
10
54.014859999077416
20
134.35398960261114
30
0
10
54.060091799233803
20
133.83842540096856
30
0
10
54.076165886629283
20
133.6552086373967
30
0
0
SPLINE
5
195
100
AcDbEntity
8
0
100
AcDbSpline
70
0
71
3
72
9
73
5
74
0
42
0.000000001
43
0.0000000001
44
0.0000000001
40
0
40
0
40
0
40
0
40
0.032880336031078393
40
0.066340185005584529
40
0.066340185005584529
40
0.066340185005584529
40
0.066340185005584529
10
54.076165886629283
20
133.6552086373967
30
0
10
54.099699181795984
20
133.54766597231765
30
0
10
54.147180544324478
20
133.33068521243143
30
0
10
54.247656848987688
20
133.13257197091394
30
0
10
54.298333855379283
20
133.0326500436467
30
0
0
LWPOLYLINE
5
196
100
AcDbEntity
8
0
100
AcDbPolyline
90
4
70
1
43
0.0
10
77.037018161813705
20
118.84433852047771
10
23.832915645639385
20
118.84433852047771
10
23.832915645639385
20
125.84433852047769
10
77.037018161813705
20
125.84433852047769
0
ENDSEC
0
SECTION
2
OBJECTS
0
DICTIONARY
5
C
100
AcDbDictionary
3
ACAD_GROUP
350
D
3
ACAD_MLINESTYLE
350
17
0
DICTIONARY
5
D
100
AcDbDictionary
0
DICTIONARY
5
1A
330
C
100
AcDbDictionary
0
DICTIONARY
5
17
100
AcDbDictionary
0
ENDSEC
0
EOF
